<svg id="Layer_5" enable-background="new 0 0 64 64" height="512" viewBox="0 0 64 64" width="512" xmlns="http://www.w3.org/2000/svg" xmlns:xlink="http://www.w3.org/1999/xlink"><linearGradient id="SVGID_1_" gradientUnits="userSpaceOnUse" x1="32" x2="32" y1="63" y2="1"><stop offset="0" stop-color="#9f2fff"/><stop offset="1" stop-color="#0bb1d3"/></linearGradient><path d="m40 32c0-4.411-3.589-8-8-8s-8 3.589-8 8 3.589 8 8 8 8-3.589 8-8zm-8 6c-3.309 0-6-2.691-6-6s2.691-6 6-6 6 2.691 6 6-2.691 6-6 6zm26.978-6.901c-.105-3.215-.767-6.339-1.978-9.304v-2.587c0-.669.33-1.297.861-1.639 2.592-1.665 4.139-4.495 4.139-7.569 0-2.56-1.096-5.007-3.006-6.714-1.909-1.706-4.474-2.517-7.039-2.227-3.75.424-6.864 3.256-7.715 6.879-3.774-1.92-7.973-2.938-12.24-2.938-3.098 0-6.118.519-9 1.54v-5.54h-6v16h-2v-12h-6v12h-2v-8h-6v10h7.336c-2.185 3.969-3.336 8.426-3.336 13 0 3.093.535 6.115 1.556 9-.344.591-.556 1.268-.556 2h-2c-1.654 0-3 1.346-3 3v5h2c1.103 0 2 .897 2 2s-.897 2-2 2h-2v5c0 1.654 1.346 3 3 3h12c1.654 0 3-1.346 3-3v-5h-2c-1.103 0-2-.897-2-2s.897-2 2-2h2v-5c0-1.654-1.346-3-3-3h-2c0-2.206-1.794-4-4-4-.667 0-1.287.18-1.84.47-.656-2.094-1.029-4.259-1.116-6.47h11.956v2.708l1.826.645c.062.157.127.314.196.471l-.836 1.748 5.244 5.244 1.748-.836c.156.069.313.135.471.196l.643 1.824h2.708v11.973c-3.325-.129-6.531-.896-9.542-2.298l-.844 1.813c3.578 1.667 7.409 2.512 11.386 2.512 8.259 0 15.898-3.704 21-10.035v7.271l2.658 5.316c.446.893 1.343 1.448 2.342 1.448s1.896-.555 2.342-1.447l2.658-5.317v-20.236c0-2.422-1.732-4.445-4.022-4.901zm-53.978-14.099h-2v-6h2zm56 19v1h-6v-1c0-1.654 1.346-3 3-3s3 1.346 3 3zm-2 19v-16h2v16zm-4 0v-16h2v16zm-11.826-27.352c-.062-.157-.127-.314-.196-.471l.836-1.748-5.244-5.244-1.748.836c-.156-.069-.313-.135-.471-.196l-.643-1.825h-2.708v-11.967c3.86.154 7.632 1.197 11.003 3.045.024 3.038 1.546 5.837 4.156 7.505.519.331.84.97.84 1.667v2.75c0 1.654 1.346 3 3 3h2c.683 0 1.306-.238 1.811-.624.685 2.14 1.077 4.357 1.165 6.624h-11.975v-2.708zm11.826-6.648v1c0 .551-.449 1-1 1h-2c-.551 0-1-.449-1-1v-1zm-3-11c0-.551.449-1 1-1s1 .449 1 1-.449 1-1 1-1-.449-1-1zm-5.94-.925c.4-3.137 2.974-5.673 6.12-6.029.278-.031.554-.046.829-.046 1.725 0 3.353.617 4.652 1.778 1.486 1.327 2.339 3.231 2.339 5.222 0 2.39-1.204 4.591-3.22 5.887-1.057.68-1.702 1.833-1.767 3.113h-1.013v-6.184c1.161-.414 2-1.514 2-2.816 0-1.654-1.346-3-3-3s-3 1.346-3 3c0 1.302.839 2.402 2 2.816v6.184h-1.015c-.074-1.291-.711-2.439-1.748-3.102-2.309-1.475-3.526-4.089-3.177-6.823zm-27.06-6.075h2v14h-2zm-8 4h2v10h-2zm1 36v2h4c.551 0 1 .449 1 1v3c-2.206 0-4 1.794-4 4s1.794 4 4 4v3c0 .551-.449 1-1 1h-12c-.551 0-1-.449-1-1v-3c2.206 0 4-1.794 4-4s-1.794-4-4-4v-3c0-.551.449-1 1-1h4v-2c0-1.103.897-2 2-2s2 .897 2 2zm7-14.708v2.708h-11.965c.169-4.257 1.409-8.374 3.622-12h12.343v-10.323c2.559-.989 5.242-1.545 8-1.652v11.975h-2.708l-.645 1.826c-.157.062-.314.127-.471.196l-1.748-.836-5.244 5.244.836 1.748c-.069.156-.135.313-.196.471zm10.217 13.316-.458-.157c-.383-.131-.769-.292-1.147-.478l-.435-.213-1.334.638-3.242-3.242.638-1.334-.213-.435c-.186-.378-.346-.764-.478-1.147l-.157-.458-1.391-.49v-4.585l1.392-.491.157-.458c.131-.383.292-.769.478-1.147l.213-.435-.638-1.334 3.242-3.242 1.334.638.435-.213c.378-.186.764-.346 1.147-.478l.458-.157.49-1.39h4.585l.491 1.392.458.157c.383.131.769.292 1.147.478l.435.213 1.334-.638 3.242 3.242-.638 1.334.213.435c.186.378.346.764.478 1.147l.157.458 1.39.49v4.585l-1.392.491-.157.458c-.131.383-.292.769-.478 1.147l-.213.435.638 1.334-3.242 3.242-1.334-.638-.435.213c-.378.186-.764.346-1.147.478l-.458.157-.49 1.39h-4.585zm3.783 15.36v-11.968h2.708l.645-1.826c.157-.062.314-.127.471-.196l1.748.836 5.244-5.244-.836-1.748c.069-.156.135-.313.196-.471l1.824-.643v-2.708h9.026c-.635.838-1.026 1.87-1.026 3v9.557c-4.452 6.886-11.853 11.091-20 11.411zm25.553 3.691c-.211.421-.895.421-1.105 0l-1.83-3.659h4.764zm-11.191-14.341 1.463 1.364c-3.609 3.87-8.471 6.394-13.689 7.105l-.271-1.981c4.763-.649 9.201-2.953 12.497-6.488zm2.829-3.818 1.731 1.001c-.414.716-.874 1.42-1.366 2.091l-1.613-1.183c.45-.613.87-1.256 1.248-1.909z" fill="url(#SVGID_1_)"/></svg>